<svg xmlns="http://www.w3.org/2000/svg" viewBox="0 0 168 174">
  <!-- AGeniO — outlined paths, font-independent -->
  <path d="M1.89 106.50L24.93 42.60L35.37 42.60L58.41 106.50L49.95 106.50L43.56 88.32L16.74 88.32L10.35 106.50L1.89 106.50M19.35 80.76L40.95 80.76L30.15 49.35L19.35 80.76M0.54 107.94Q-8.28 107.94-14.72 103.67Q-21.15 99.39-24.57 91.83Q-27.99 84.27-27.99 74.64Q-27.99 65.01-24.53 57.41Q-21.06 49.80-14.58 45.48Q-8.10 41.16 0.72 41.16Q11.61 41.16 18 46.92Q24.39 52.68 26.28 62.22L18.18 62.76Q16.92 56.10 12.69 52.41Q8.46 48.72 0.72 48.72Q-9.63 48.72-14.76 56.05Q-19.89 63.39-19.89 74.64Q-19.89 82.20-17.69 87.96Q-15.48 93.72-10.85 97.05Q-6.21 100.38 0.72 100.38Q6.21 100.38 10.39 97.86Q14.58 95.34 16.87 91.02Q19.17 86.70 19.26 81.57L0.90 81.57L0.90 74.19L26.46 74.19L26.46 106.50L20.70 106.50L20.16 91.74L21.24 93Q20.16 97.32 17.14 100.69Q14.13 104.07 9.76 106Q5.40 107.94 0.54 107.94M-31.68 107.58Q-38.34 107.58-43.29 104.52Q-48.24 101.46-50.90 95.84Q-53.55 90.21-53.55 82.65Q-53.55 75.18-50.90 69.51Q-48.24 63.84-43.38 60.78Q-38.52 57.72-32.04 57.72Q-25.83 57.72-21.06 60.65Q-16.29 63.57-13.64 69.24Q-10.98 74.91-10.98 82.74L-10.98 84.99L-45.63 84.99Q-45.27 92.55-41.63 96.47Q-37.98 100.38-31.68 100.38Q-27.09 100.38-24.08 98.27Q-21.06 96.15-19.80 92.37L-11.70 93Q-13.59 99.57-18.95 103.58Q-24.30 107.58-31.68 107.58M-19.26 78.33Q-19.80 71.67-23.18 68.30Q-26.55 64.92-32.04 64.92Q-37.62 64.92-41.18 68.34Q-44.73 71.76-45.63 78.33L-19.26 78.33M-90 106.50L-90 58.80L-83.07 58.80L-82.80 70.95L-83.70 70.14Q-82.44 64.02-78.25 60.87Q-74.07 57.72-68.22 57.72Q-60.39 57.72-56.25 62.76Q-52.11 67.80-52.11 75.81L-52.11 106.50L-59.67 106.50L-59.67 77.97Q-59.67 71.22-62.10 67.80Q-64.53 64.38-69.84 64.38Q-75.51 64.38-78.98 67.94Q-82.44 71.49-82.44 77.97L-82.44 106.50L-90 106.50M-127.71 106.50L-127.71 58.80L-120.15 58.80L-120.15 106.50L-127.71 106.50M-127.89 51.33L-127.89 42.51L-119.97 42.51L-119.97 51.33L-127.89 51.33M-170.73 107.94Q-179.73 107.94-186.30 103.94Q-192.87 99.93-196.38 92.42Q-199.89 84.90-199.89 74.64Q-199.89 64.38-196.38 56.82Q-192.87 49.26-186.30 45.21Q-179.73 41.16-170.73 41.16Q-161.64 41.16-155.07 45.21Q-148.50 49.26-144.99 56.82Q-141.48 64.38-141.48 74.64Q-141.48 84.90-144.99 92.42Q-148.50 99.93-155.07 103.94Q-161.64 107.94-170.73 107.94M-170.73 100.38Q-164.16 100.38-159.39 97.32Q-154.62 94.26-152.10 88.45Q-149.58 82.65-149.58 74.64Q-149.58 66.63-152.10 60.78Q-154.62 54.93-159.39 51.83Q-164.16 48.72-170.73 48.72Q-177.30 48.72-182.02 51.83Q-186.75 54.93-189.27 60.78Q-191.79 66.63-191.79 74.64Q-191.79 82.65-189.27 88.45Q-186.75 94.26-182.02 97.32Q-177.30 100.38-170.73 100.38" fill="#ffffff"/>

  <!-- Bolt replacing S: −4px overlap (scaled) / stroke-width 2.5 -->
  <g transform="translate(38.41, 8.70) scale(5)">
    <path d="M4 14a1 1 0 0 1-.78-1.63l9.9-10.2a.5.5 0 0 1 .86.46l-1.92 6.02A1 1 0 0 0 13 10h7a1 1 0 0 1 .78 1.63l-9.9 10.2a.5.5 0 0 1-.86-.46l1.92-6.02A1 1 0 0 0 11 14z" fill="none" stroke="#7c3aed"
          stroke-width="2.5" stroke-linecap="round" stroke-linejoin="round"/>
  </g>

  <!-- remote — outlined paths -->
  <path d="M3.60 157.44L3.60 133.59L6.93 133.59L7.11 139.62L6.75 139.49Q7.20 136.47 8.69 135.03Q10.17 133.59 12.73 133.59L15.07 133.59L15.07 137.19L12.78 137.19Q10.98 137.19 9.79 137.84Q8.59 138.50 7.99 139.80Q7.38 141.10 7.38 143.04L7.38 157.44L3.60 157.44M28.89 157.98Q25.56 157.98 23.08 156.45Q20.61 154.92 19.28 152.11Q17.95 149.29 17.95 145.51Q17.95 141.78 19.28 138.94Q20.61 136.11 23.04 134.58Q25.47 133.05 28.71 133.05Q31.81 133.05 34.20 134.51Q36.59 135.97 37.91 138.81Q39.24 141.65 39.24 145.56L39.24 146.69L21.91 146.69Q22.09 150.47 23.92 152.42Q25.74 154.38 28.89 154.38Q31.18 154.38 32.69 153.32Q34.20 152.26 34.83 150.38L38.88 150.69Q37.93 153.97 35.26 155.98Q32.58 157.98 28.89 157.98M35.10 143.35Q34.83 140.03 33.14 138.34Q31.45 136.65 28.71 136.65Q25.92 136.65 24.14 138.36Q22.36 140.07 21.91 143.35L35.10 143.35M44.73 157.44L44.73 133.59L48.19 133.59L48.33 139.62L47.79 139.44Q48.19 137.50 49.21 136.06Q50.22 134.63 51.70 133.84Q53.19 133.05 54.99 133.05Q58.09 133.05 60.05 134.74Q62.01 136.43 62.50 139.53L61.78 139.49Q62.32 136.43 64.22 134.74Q66.10 133.05 69.12 133.05Q71.64 133.05 73.42 134.11Q75.19 135.16 76.09 137.19Q77 139.22 77 142.09L77 157.44L73.22 157.44L73.22 142.91Q73.22 139.66 71.95 138.02Q70.69 136.38 68.22 136.38Q66.55 136.38 65.32 137.19Q64.08 138 63.40 139.53Q62.73 141.06 62.73 143.18L62.73 157.44L58.95 157.44L58.95 143.18Q58.95 139.89 57.78 138.13Q56.61 136.38 54.04 136.38Q52.38 136.38 51.12 137.19Q49.86 138 49.18 139.55Q48.51 141.10 48.51 143.18L48.51 157.44L44.73 157.44M92.97 157.98Q89.69 157.98 87.21 156.45Q84.73 154.92 83.39 152.11Q82.03 149.29 82.03 145.51Q82.03 141.73 83.39 138.92Q84.73 136.11 87.21 134.58Q89.69 133.05 92.97 133.05Q96.21 133.05 98.69 134.58Q101.16 136.11 102.51 138.92Q103.86 141.73 103.86 145.51Q103.86 149.29 102.51 152.11Q101.16 154.92 98.69 156.45Q96.21 157.98 92.97 157.98M92.97 154.38Q96.25 154.38 98.08 152.02Q99.90 149.66 99.90 145.51Q99.90 141.38 98.08 139.01Q96.25 136.65 92.97 136.65Q89.69 136.65 87.84 138.99Q86 141.33 86 145.51Q86 149.70 87.84 152.04Q89.69 154.38 92.97 154.38M116.95 157.44Q113.72 157.44 112.16 155.95Q110.61 154.47 110.61 151.32L110.61 128.01L114.39 128.01L114.39 151.23Q114.39 152.81 115.09 153.46Q115.78 154.11 117.31 154.11L120.73 154.11L120.73 157.44L116.95 157.44M107.10 136.92L107.10 133.59L120.73 133.59L120.73 136.92L107.10 136.92M134.78 157.98Q131.44 157.98 128.97 156.45Q126.50 154.92 125.17 152.11Q123.84 149.29 123.84 145.51Q123.84 141.78 125.17 138.94Q126.50 136.11 128.93 134.58Q131.36 133.05 134.59 133.05Q137.70 133.05 140.09 134.51Q142.47 135.97 143.80 138.81Q145.13 141.65 145.13 145.56L145.13 146.69L127.80 146.69Q127.98 150.47 129.80 152.42Q131.63 154.38 134.78 154.38Q137.07 154.38 138.58 153.32Q140.09 152.26 140.72 150.38L144.77 150.69Q143.82 153.97 141.14 155.98Q138.47 157.98 134.78 157.98M140.99 143.35Q140.72 140.03 139.03 138.34Q137.34 136.65 134.59 136.65Q131.81 136.65 130.03 138.36Q128.25 140.07 127.80 143.35" fill="#6b7280"/>

  <!-- underline -->
  <line x1="0" y1="167.98" x2="140.00" y2="167.98"
        stroke="#7c3aed" stroke-width="4.0" stroke-opacity="0.55"/>
</svg>